# xmcd CD database file
#
# Track frame offsets:
#	150
#	16168
#	32107
#	48650
#	61729
#	79378
#	94183
#	106178
#	125386
#	138564
#	156052
#	175386
#	190933
#	204660
#	215931
#	225438
#	238383
#	254282
#	267942
#	282288
#
# Disc length: 3965 seconds
#
# Revision: 0
# Processed by: cddbd v1.5.1PL2 Copyright (c) Steve Scherf et al.
# Submitted via: CDex 1.51
#
DISCID=260f7b14
DTITLE=Various Artist - As 20 mais sertanejas
DYEAR=2006
DGENRE=Country
TTITLE0=Daniel - Meu reino encantado
TTITLE1=Liu e Leu - O ipê e o prisioneiro
TTITLE2=Tião Carreiro e Pardinho - A mão do tempo
TTITLE3=João Mineiro e Marciano - Amor e amizade
TTITLE4=Milionário e José Rico - Meu martírio
TTITLE5=Trio Parada Dura - Barco de papel
TTITLE6=Dino Franco e Mouraí - Caboclo na cidade
TTITLE7=Ataíde e Alexandre - Laço aberto
TTITLE8=Gilberto e Gilmar - Só mais uma vez
TTITLE9=Chico Rei e Paraná - Quem será seu outro amor
TTITLE10=Tião Carreiro e Pardinho - Golpe de mestre
TTITLE11=Cézar e Paulinho - Pout-pourri de catira
TTITLE12=João Mineiro e Marciano - Aline
TTITLE13=Teodoro e Sampaio - Passe livre
TTITLE14=Milionário e José Rico - Estrada da vida
TTITLE15=Duduca e Dalvan - Dama de vermelho
TTITLE16=Trio Parada Dura - Castelo de amor
TTITLE17=Mococa e Paraíso - Saco de ouro
TTITLE18=Matogrosso e Mathias - De igual pra igual
TTITLE19=Chico Rei e Paraná - Canarinho prisioneiro
EXTD=YEAR: 2006
EXTT0=
EXTT1=
EXTT2=
EXTT3=
EXTT4=
EXTT5=
EXTT6=
EXTT7=
EXTT8=
EXTT9=
EXTT10=
EXTT11=
EXTT12=
EXTT13=
EXTT14=
EXTT15=
EXTT16=
EXTT17=
EXTT18=
EXTT19=
PLAYORDER=
